<svg version="1.1" id="Layer_1" xmlns="http://www.w3.org/2000/svg" xmlns:xlink="http://www.w3.org/1999/xlink" x="0px" y="0px"
	 width="100%" viewBox="0 0 1024 1024" enable-background="new 0 0 1024 1024" xml:space="preserve">
<path fill="#000000" opacity="1.000000" stroke="none" 
	d="
M361.999878,719.373169 
	C330.340271,719.363647 299.180420,719.277893 268.021332,719.396118 
	C259.745941,719.427551 253.331375,716.366821 249.488434,709.092773 
	C245.756256,702.028503 247.478210,695.318481 251.876236,688.945923 
	C284.221954,642.078186 316.595093,595.228943 348.792053,548.259094 
	C382.120544,499.638580 415.244659,450.878082 448.489502,402.200195 
	C464.266663,379.098907 480.576813,356.344910 495.761719,332.862122 
	C504.943756,318.662567 522.138062,321.883331 529.815063,333.210358 
	C578.311218,404.763855 627.488159,475.856018 676.449036,547.094482 
	C708.995117,594.449280 741.524353,641.815735 774.146606,689.118103 
	C778.559753,695.517151 780.383057,702.188843 776.623718,709.218201 
	C772.738708,716.482361 766.056335,719.362305 757.910278,719.361267 
	C626.106812,719.344910 494.303345,719.363098 361.999878,719.373169 
M310.686096,665.133362 
	C306.516663,671.213257 302.347198,677.293152 297.576050,684.250488 
	C441.561859,684.250488 584.217651,684.250488 726.930115,684.250488 
	C727.211548,681.282959 725.501526,679.537354 724.220215,677.679993 
	C704.451843,649.022827 684.642456,620.393860 664.867249,591.741394 
	C663.438599,589.671326 661.939697,587.739990 659.897095,586.201233 
	C636.754028,568.766785 613.664001,551.261902 590.486755,533.873169 
	C587.237976,531.435791 584.328491,528.394592 580.205994,526.844543 
	C579.302795,528.097595 578.486572,529.127808 577.778992,530.227905 
	C572.194275,538.910400 566.891052,547.787903 560.994446,556.252441 
	C553.479614,567.039978 539.879517,567.063965 531.934570,556.633118 
	C530.522583,554.779297 529.239990,552.825867 527.919189,550.903625 
	C518.298706,536.901855 508.688446,522.893005 499.064636,508.893494 
	C495.211243,503.288116 495.205750,503.306732 489.274231,506.918884 
	C484.153656,510.037170 478.934845,513.001709 473.899658,516.251404 
	C439.619049,538.375793 405.403473,560.601074 371.084869,582.666260 
	C366.778778,585.434875 363.242859,588.732788 360.369324,592.921570 
	C343.976868,616.817139 327.530579,640.675781 310.686096,665.133362 
M466.441925,438.890686 
	C450.397278,462.330780 434.352661,485.770905 418.308044,509.210999 
	C420.558380,509.177887 422.097900,508.356628 423.557159,507.411469 
	C445.497040,493.200958 467.370758,478.887299 489.382385,464.788971 
	C499.848633,458.085449 508.923553,460.189301 515.974854,470.575989 
	C524.113220,482.563934 532.158020,494.615448 540.270630,506.620911 
	C544.587952,513.009888 545.367798,513.026062 549.306152,506.676117 
	C552.201965,502.007111 555.341003,497.433929 557.698730,492.496643 
	C564.300232,478.672363 579.124084,478.584656 588.811523,487.945862 
	C590.834595,489.900818 593.206909,491.494354 595.418274,493.254425 
	C595.620178,493.022125 595.822083,492.789825 596.023926,492.557526 
	C568.536133,452.783112 541.048279,413.008728 513.040527,372.481964 
	C496.590057,394.626678 482.064056,416.707581 466.441925,438.890686 
z"/>
</svg>